<svg xmlns="http://www.w3.org/2000/svg" xml:space="preserve" width="9" height="18" version="1.1" style="shape-rendering:geometricPrecision; text-rendering:geometricPrecision; image-rendering:optimizeQuality; fill-rule:evenodd; clip-rule:evenodd"
viewBox="0 0 846.66 1693.32">
  <g>
   <path fill="#92929D" d="M757.65 1087.96c38.35,0 60.28,43.81 37.23,74.5l-325.87 434.51c-18.62,24.84 -55.85,24.84 -74.5,0l-325.87 -434.51c-23.02,-30.69 -1.13,-74.5 37.23,-74.5l651.78 0z"/>
   <path fill="#92929D" d="M757.65 1087.96c38.35,0 60.28,43.81 37.23,74.5l-325.87 434.51c-18.62,24.84 -55.85,24.84 -74.5,0l-325.87 -434.51c-23.02,-30.69 -1.13,-74.5 37.23,-74.5l651.78 0z"/>
  </g>
  <g>
   <path fill="#92929D" d="M105.89 592.66c-38.35,0 -60.28,-43.81 -37.23,-74.5l325.87 -434.51c18.62,-24.84 55.85,-24.84 74.5,0l325.87 434.51c23.02,30.69 1.13,74.5 -37.23,74.5l-651.78 0z"/>
   <path fill="#92929D" d="M105.89 592.66c-38.35,0 -60.28,-43.81 -37.23,-74.5l325.87 -434.51c18.62,-24.84 55.85,-24.84 74.5,0l325.87 434.51c23.02,30.69 1.13,74.5 -37.23,74.5l-651.78 0z"/>
  </g>
</svg>
